<svg version="1.1" viewBox="0.0 0.0 212.81102362204723 100.0" fill="none" stroke="none" stroke-linecap="square" stroke-miterlimit="10" xmlns:xlink="http://www.w3.org/1999/xlink" xmlns="http://www.w3.org/2000/svg"><clipPath id="p.0"><path d="m0 0l212.81102 0l0 100.0l-212.81102 0l0 -100.0z" clip-rule="nonzero"/></clipPath><g clip-path="url(#p.0)"><path fill="#000000" fill-opacity="0.0" d="m0 0l212.81102 0l0 100.0l-212.81102 0z" fill-rule="evenodd"/><path fill="#000000" fill-opacity="0.0" d="m7.398949 32.22572l35.811024 0l0 33.322834l-35.811024 0z" fill-rule="evenodd"/><path stroke="#ffffff" stroke-width="1.0" stroke-linejoin="round" stroke-linecap="butt" stroke-dasharray="8.0,3.0,1.0,3.0" d="m7.398949 32.22572l35.811024 0l0 33.322834l-35.811024 0z" fill-rule="evenodd"/><path fill="#000000" fill-opacity="0.0" d="m12.71767 36.693718l25.165356 0l0 24.377956l-25.165356 0z" fill-rule="evenodd"/><path stroke="#ffffff" stroke-width="1.0" stroke-linejoin="round" stroke-linecap="butt" d="m12.71767 36.693718l25.165356 0l0 24.377956l-25.165356 0z" fill-rule="evenodd"/><path fill="#000000" fill-opacity="0.0" d="m43.209972 24.64567l177.16536 0l0 48.472443l-177.16536 0z" fill-rule="evenodd"/><path fill="#ffffff" d="m53.600597 56.68567l0 -17.28125l13.921879 0q0.90625 0 1.671875 0.453125q0.78125 0.453125 1.234375 1.21875q0.453125 0.75 0.453125 1.671875l0 10.59375q0 0.921875 -0.453125 1.6875q-0.453125 0.75 -1.234375 1.203125q-0.765625 0.453125 -1.671875 0.453125l-13.921879 0zm3.4375 -3.1875l10.343754 0q0.109375 0 0.203125 -0.078125q0.109375 -0.09375 0.109375 -0.21875l0 -10.3125q0 -0.125 -0.109375 -0.203125q-0.09375 -0.09375 -0.203125 -0.09375l-10.343754 0q-0.125 0 -0.21875 0.09375q-0.078125 0.078125 -0.078125 0.203125l0 10.3125q0 0.125 0.078125 0.21875q0.09375 0.078125 0.21875 0.078125zm19.7972 3.1875q-0.90625 0 -1.671875 -0.453125q-0.75 -0.453125 -1.21875 -1.203125q-0.453125 -0.765625 -0.453125 -1.6875l0 -1.3125l3.171875 0l0 1.171875q0 0.125 0.078125 0.21875q0.09375 0.078125 0.21875 0.078125l10.34375 0q0.109375 0 0.1875 -0.078125q0.09375 -0.09375 0.09375 -0.21875l0 -3.28125q0 -0.125 -0.09375 -0.1875q-0.078125 -0.078125 -0.1875 -0.078125l-10.46875 0q-0.90625 0 -1.671875 -0.453125q-0.75 -0.453125 -1.21875 -1.203125q-0.453125 -0.765625 -0.453125 -1.703125l0 -3.546875q0 -0.921875 0.453125 -1.671875q0.46875 -0.765625 1.21875 -1.21875q0.765625 -0.453125 1.671875 -0.453125l10.609375 0q0.90625 0 1.65625 0.453125q0.765625 0.453125 1.21875 1.21875q0.453125 0.75 0.453125 1.671875l0 1.3125l-3.1875 0l0 -1.171875q0 -0.125 -0.09375 -0.203125q-0.078125 -0.09375 -0.1875 -0.09375l-10.34375 0q-0.125 0 -0.21875 0.09375q-0.078125 0.078125 -0.078125 0.203125l0 3.28125q0 0.125 0.078125 0.203125q0.09375 0.0625 0.21875 0.0625l10.484375 0q0.90625 0 1.65625 0.453125q0.765625 0.453125 1.21875 1.21875q0.453125 0.75 0.453125 1.6875l0 3.546875q0 0.921875 -0.453125 1.6875q-0.453125 0.75 -1.21875 1.203125q-0.75 0.453125 -1.65625 0.453125l-10.609375 0zm16.55832 0l0 -17.25l13.921875 0q0.90625 0 1.671875 0.453125q0.78125 0.453125 1.234375 1.21875q0.453125 0.75 0.453125 1.65625l0 4.65625q0 0.90625 -0.453125 1.6875q-0.453125 0.765625 -1.234375 1.21875q-0.765625 0.4375 -1.671875 0.4375l-10.75 0.015625l0 5.90625l-3.171875 0zm3.453125 -9.125l10.328125 0q0.109375 0 0.203125 -0.0625q0.109375 -0.078125 0.109375 -0.203125l0 -4.40625q0 -0.125 -0.109375 -0.203125q-0.09375 -0.09375 -0.203125 -0.09375l-10.328125 0q-0.109375 0 -0.203125 0.09375q-0.078125 0.078125 -0.078125 0.203125l0 4.40625q0 0.125 0.078125 0.203125q0.09375 0.0625 0.203125 0.0625zm18.874573 9.125q-0.921875 0 -1.6875 -0.453125q-0.75 -0.453125 -1.203125 -1.203125q-0.453125 -0.765625 -0.453125 -1.6875l0 -10.59375q0 -0.921875 0.453125 -1.671875q0.453125 -0.765625 1.203125 -1.21875q0.765625 -0.453125 1.6875 -0.453125l13.890625 0l0 3.1875l-13.21875 0q-0.390625 0 -0.625 0.21875q-0.21875 0.21875 -0.21875 0.625l0 9.21875q0 0.390625 0.21875 0.625q0.234375 0.21875 0.625 0.21875l13.21875 0l0 3.1875l-13.890625 0zm19.665436 0q-0.90625 0 -1.671875 -0.453125q-0.75 -0.453125 -1.203125 -1.203125q-0.453125 -0.765625 -0.453125 -1.6875l0 -10.59375q0 -0.921875 0.453125 -1.671875q0.453125 -0.765625 1.203125 -1.21875q0.765625 -0.453125 1.671875 -0.453125l10.609375 0q0.921875 0 1.671875 0.453125q0.75 0.453125 1.203125 1.21875q0.46875 0.75 0.46875 1.671875l0 10.59375q0 0.921875 -0.46875 1.6875q-0.453125 0.75 -1.203125 1.203125q-0.75 0.453125 -1.671875 0.453125l-10.609375 0zm0.125 -3.1875l10.328125 0q0.109375 0 0.203125 -0.078125q0.109375 -0.09375 0.109375 -0.21875l0 -10.3125q0 -0.125 -0.109375 -0.203125q-0.09375 -0.09375 -0.203125 -0.09375l-10.328125 0q-0.125 0 -0.203125 0.09375q-0.078125 0.078125 -0.078125 0.203125l0 10.3125q0 0.125 0.078125 0.21875q0.078125 0.078125 0.203125 0.078125zm16.512573 3.1875l0 -17.28125l13.921875 0q0.90625 0 1.671875 0.453125q0.78125 0.453125 1.234375 1.21875q0.453125 0.75 0.453125 1.671875l0 10.59375q0 0.921875 -0.453125 1.6875q-0.453125 0.75 -1.234375 1.203125q-0.765625 0.453125 -1.671875 0.453125l-13.921875 0zm3.4375 -3.1875l10.34375 0q0.109375 0 0.203125 -0.078125q0.109375 -0.09375 0.109375 -0.21875l0 -10.3125q0 -0.125 -0.109375 -0.203125q-0.09375 -0.09375 -0.203125 -0.09375l-10.34375 0q-0.125 0 -0.21875 0.09375q-0.078125 0.078125 -0.078125 0.203125l0 10.3125q0 0.125 0.078125 0.21875q0.09375 0.078125 0.21875 0.078125zm16.578445 3.1875l0 -17.28125l15.90625 0l0 3.1875l-12.71875 0l0 3.84375l10.234375 0l0 3.21875l-10.234375 0l0 3.84375l12.71875 0l0 3.1875l-15.90625 0zm32.118317 0l-5.21875 -6.21875l4.15625 0l4.515625 5.328125l0 0.890625l-3.453125 0zm-13.78125 0l0 -17.25l13.921875 0q0.90625 0 1.671875 0.453125q0.78125 0.453125 1.234375 1.21875q0.453125 0.75 0.453125 1.65625l0 4.65625q0 0.90625 -0.453125 1.6875q-0.453125 0.765625 -1.234375 1.21875q-0.765625 0.4375 -1.671875 0.4375l-10.75 0.015625l0 5.90625l-3.171875 0zm3.453125 -9.125l10.328125 0q0.109375 0 0.203125 -0.0625q0.109375 -0.078125 0.109375 -0.203125l0 -4.40625q0 -0.125 -0.109375 -0.203125q-0.09375 -0.09375 -0.203125 -0.09375l-10.328125 0q-0.109375 0 -0.203125 0.09375q-0.078125 0.078125 -0.078125 0.203125l0 4.40625q0 0.125 0.078125 0.203125q0.09375 0.0625 0.203125 0.0625z" fill-rule="nonzero"/></g></svg>